<?xml version="1.0" standalone="no"?>
<!DOCTYPE svg PUBLIC "-//W3C//DTD SVG 20010904//EN"
 "http://www.w3.org/TR/2001/REC-SVG-20010904/DTD/svg10.dtd">
<svg version="1.0" xmlns="http://www.w3.org/2000/svg"
 width="5303.000000pt" height="1930.000000pt" viewBox="0 0 5303.000000 1930.000000"
 preserveAspectRatio="xMidYMid meet">

<g transform="translate(0.000000,1930.000000) scale(0.100000,-0.100000)"
fill="#000000" stroke="none">
<path d="M7920 15388 c-101 -5 -187 -12 -190 -16 -3 -4 -38 -8 -79 -9 -102 -2
-466 -52 -511 -69 -8 -4 -33 -8 -55 -10 -22 -3 -110 -20 -196 -39 -86 -19
-159 -35 -163 -35 -5 0 -5 -7 -2 -16 5 -14 4 -15 -8 -5 -11 9 -42 4 -142 -24
-259 -73 -618 -200 -609 -216 4 -5 -1 -6 -8 -3 -28 10 -471 -191 -460 -209 3
-6 1 -7 -5 -3 -14 9 -103 -35 -95 -47 3 -6 1 -7 -6 -3 -13 8 -204 -91 -197
-103 3 -4 -3 -7 -13 -8 -27 -2 -82 -38 -73 -48 4 -5 2 -5 -5 -1 -7 4 -52 -19
-104 -51 -50 -32 -106 -67 -125 -77 -18 -11 -30 -24 -27 -29 3 -6 2 -7 -4 -4
-12 8 -65 -27 -56 -37 5 -4 3 -6 -4 -4 -6 2 -41 -17 -77 -41 -57 -38 -64 -46
-53 -60 10 -14 10 -14 -4 -3 -14 10 -32 0 -121 -66 -92 -68 -156 -118 -235
-186 -12 -10 -20 -23 -17 -28 3 -5 0 -7 -8 -6 -7 2 -12 -4 -10 -13 1 -9 -5
-20 -14 -23 -14 -5 -15 -4 -4 9 18 22 -4 19 -23 -3 -10 -10 -14 -22 -10 -26 4
-4 1 -4 -8 -1 -9 3 -28 -9 -49 -31 -20 -21 -28 -34 -18 -31 10 3 20 2 23 -3 3
-4 -7 -7 -21 -5 -22 2 -43 -13 -108 -73 -45 -42 -81 -80 -81 -84 0 -4 -3 -7
-6 -5 -3 1 -13 -4 -23 -12 -13 -11 -14 -17 -4 -30 11 -14 11 -14 -3 -3 -20 15
-70 -36 -382 -388 -62 -69 -96 -118 -89 -125 4 -5 2 -5 -4 -2 -14 8 -107 -110
-98 -125 4 -6 3 -8 -4 -5 -13 9 -116 -129 -107 -143 4 -6 1 -9 -5 -8 -13 3
-152 -187 -143 -196 4 -3 1 -6 -5 -6 -7 0 -12 -6 -12 -13 0 -8 -9 -22 -20 -32
-20 -18 -28 -41 -10 -30 6 3 7 -1 3 -10 -4 -12 -8 -13 -13 -4 -6 8 -11 5 -20
-11 -7 -12 -8 -20 -3 -17 5 4 10 0 10 -7 0 -8 -6 -12 -12 -10 -13 5 -48 -42
-48 -63 0 -7 -4 -13 -8 -13 -12 0 -44 -62 -40 -79 1 -7 -2 -10 -7 -7 -7 4 -75
-104 -77 -124 0 -3 -9 -17 -18 -32 -10 -14 -19 -35 -20 -46 0 -12 -4 -19 -8
-16 -10 6 -151 -274 -144 -286 3 -6 3 -10 -2 -10 -7 0 -47 -75 -48 -89 -1 -3
-6 -16 -13 -28 -7 -13 -9 -23 -5 -23 4 0 3 -4 -3 -8 -17 -12 -55 -112 -48
-125 4 -7 3 -9 -1 -4 -8 7 -78 -153 -70 -161 8 -8 25 10 19 20 -4 7 -2 8 5 4
15 -10 -4 -36 -25 -36 -11 0 -18 -16 -13 -32 0 -2 -6 -16 -15 -32 -8 -16 -13
-33 -10 -38 3 -4 1 -8 -4 -8 -11 0 -33 -70 -26 -82 3 -4 1 -8 -5 -8 -8 0 -24
-46 -26 -75 0 -5 -3 -14 -7 -20 -14 -23 -57 -189 -51 -199 3 -6 2 -7 -2 -3 -5
4 -28 -66 -51 -155 -31 -123 -38 -167 -30 -177 8 -11 8 -13 -1 -7 -7 4 -13 5
-13 2 0 -2 -7 -37 -15 -76 -14 -64 -24 -123 -30 -175 -1 -11 -5 -27 -8 -35 -3
-8 -13 -68 -22 -133 -13 -93 -14 -122 -4 -133 9 -12 9 -13 -3 -9 -40 15 -73
-767 -49 -1150 7 -104 19 -244 27 -310 8 -66 17 -142 20 -170 3 -27 8 -57 11
-65 3 -8 5 -26 4 -39 -2 -13 2 -21 7 -17 6 3 8 -2 5 -12 -9 -36 77 -449 147
-702 64 -231 244 -725 261 -715 5 3 6 0 3 -8 -7 -19 70 -189 81 -179 4 4 5 2
1 -5 -6 -12 192 -419 218 -446 6 -7 22 -35 36 -62 14 -27 33 -58 43 -67 9 -10
17 -21 17 -25 -2 -19 42 -83 52 -77 7 4 8 2 4 -4 -7 -12 50 -112 65 -112 5 0
8 -3 7 -8 -5 -14 64 -112 75 -105 6 3 7 1 3 -6 -8 -12 99 -167 149 -215 16
-16 23 -26 15 -21 -13 8 86 -125 127 -170 10 -11 34 -40 53 -65 110 -142 507
-553 524 -543 6 3 8 2 3 -2 -7 -8 20 -45 33 -45 3 0 39 -31 80 -70 40 -38 77
-67 81 -64 5 3 9 -2 9 -10 0 -9 4 -16 8 -16 5 0 19 -10 32 -22 13 -13 78 -67
144 -120 85 -68 124 -94 132 -87 8 7 15 6 20 -2 4 -8 3 -9 -4 -5 -7 4 -12 3
-12 -2 0 -5 25 -28 55 -51 30 -23 55 -38 55 -34 0 4 6 0 13 -9 19 -25 309
-218 319 -212 4 3 8 1 8 -4 0 -6 57 -44 128 -85 194 -113 222 -128 234 -121 6
4 8 3 5 -3 -6 -9 144 -89 159 -84 4 2 10 -2 13 -8 5 -8 239 -124 248 -122 3 0
60 -23 157 -65 43 -18 82 -31 87 -28 5 3 9 0 9 -6 0 -7 7 -9 16 -6 8 3 13 2
10 -3 -7 -11 452 -164 470 -157 9 3 12 1 9 -4 -3 -6 4 -11 17 -12 37 -2 42 -3
54 -11 18 -11 337 -88 342 -82 3 3 10 0 17 -5 6 -5 29 -12 51 -14 21 -2 46 -6
54 -10 66 -25 558 -89 805 -104 143 -8 633 -9 760 0 50 3 137 9 194 12 57 4
112 11 121 16 10 5 20 7 23 4 2 -3 58 2 123 11 66 10 127 17 137 17 9 -1 15 3
13 7 -3 4 9 5 26 3 17 -3 28 -1 25 5 -3 5 10 7 30 5 23 -3 33 -1 29 6 -3 6 1
8 12 6 55 -15 786 168 765 191 -5 4 -3 5 4 1 7 -4 24 -4 38 0 19 5 23 9 15 19
-8 10 -8 15 1 21 7 4 9 3 5 -4 -16 -26 24 -21 139 18 73 25 122 47 118 53 -3
6 -1 7 6 3 15 -9 53 3 46 15 -3 5 0 6 8 3 14 -5 136 40 147 55 3 3 13 7 23 9
26 4 151 63 155 73 2 4 10 5 19 2 12 -5 14 -3 8 7 -5 8 -4 11 2 7 11 -7 94 29
104 45 3 5 9 8 11 6 11 -7 147 66 141 75 -3 6 -1 7 5 3 14 -9 103 35 95 47 -3
6 -1 7 4 4 13 -8 173 80 173 95 0 6 3 9 6 5 4 -3 20 1 36 9 20 10 28 20 24 31
-5 13 -4 14 8 4 12 -10 18 -9 32 8 10 11 21 18 25 16 4 -3 13 2 20 11 11 13
10 17 -4 26 -25 13 -11 31 14 18 11 -6 17 -15 14 -21 -4 -5 -1 -9 4 -9 6 0 11
4 11 8 0 5 12 15 28 23 54 27 102 62 97 70 -3 4 0 11 6 15 8 4 9 3 5 -4 -11
-18 1 -14 45 15 l41 27 -23 16 c-17 14 -19 19 -8 25 8 5 11 5 7 0 -5 -5 1 -14
12 -22 17 -12 27 -8 102 46 46 33 95 71 110 85 15 15 29 25 31 24 2 -2 21 12
43 30 23 19 31 30 19 26 -16 -5 -17 -4 -5 4 8 6 18 8 22 6 11 -7 74 46 70 58
-1 5 2 7 7 4 5 -3 14 1 21 9 11 13 10 14 -6 9 -15 -5 -16 -4 -4 4 8 6 18 8 22
6 9 -6 34 14 165 133 58 52 80 79 76 91 -4 14 -3 15 6 2 9 -13 13 -12 31 7 22
24 27 38 8 27 -7 -4 -8 -3 -4 5 4 6 12 9 17 5 14 -9 352 333 343 347 -4 7 -3
9 4 6 13 -9 94 82 85 96 -3 5 -2 7 4 4 13 -8 147 149 138 163 -4 6 -1 9 5 8 7
-2 48 43 91 100 44 56 76 102 72 102 -4 0 3 7 15 16 22 15 32 41 10 28 -7 -4
-8 -3 -4 5 4 6 11 9 16 6 5 -3 19 9 31 27 13 17 18 28 11 24 -8 -5 -10 -2 -6
8 3 9 10 14 15 11 9 -6 31 29 24 39 -3 3 -2 4 1 1 11 -8 46 45 40 60 -3 8 0
17 6 21 7 5 8 2 3 -6 -5 -8 -4 -11 3 -6 22 13 122 178 116 189 -4 7 -4 9 1 5
13 -12 44 47 39 74 -4 20 -3 21 4 3 9 -19 9 -19 21 3 7 12 9 28 5 34 -4 6 -3
8 3 5 5 -3 26 22 46 55 23 40 33 64 26 69 -6 4 -3 8 8 11 24 6 239 431 227
449 -4 7 -3 10 3 6 9 -6 52 82 57 117 1 8 8 21 15 30 7 9 11 23 7 31 -3 9 1
18 10 22 8 3 13 12 10 19 -3 8 -1 14 5 14 6 0 8 8 5 17 -4 10 -4 14 0 10 10
-9 66 131 59 144 -4 5 -2 9 3 9 23 0 222 665 226 750 0 21 4 36 8 34 9 -6 21
73 12 87 -4 7 -3 9 3 6 6 -4 13 9 17 31 8 53 8 64 -6 56 -7 -4 -8 -3 -4 5 4 6
12 9 17 6 5 -4 10 9 11 27 3 59 5 73 13 92 5 11 9 43 9 72 1 28 4 50 7 48 12
-7 61 438 58 517 -2 25 1 51 5 57 10 17 9 706 -1 709 -4 2 -7 37 -5 78 2 41 0
75 -5 75 -5 0 -7 15 -5 33 3 26 -21 249 -42 387 -22 145 -41 240 -47 240 -5 0
-6 6 -3 14 9 22 -98 481 -129 556 -5 14 -11 30 -11 35 -3 29 -42 145 -49 145
-4 0 -6 4 -3 9 5 8 -23 93 -98 297 -45 123 -166 398 -179 406 -7 4 -8 8 -4 8
9 0 -82 182 -97 192 -6 4 -8 8 -3 8 27 0 -364 661 -418 705 -6 6 -12 14 -12
18 -1 14 -224 307 -234 307 -5 0 -8 3 -7 8 5 13 -105 141 -116 135 -6 -3 -8
-3 -4 2 4 4 3 14 -3 22 -10 11 -15 11 -28 1 -14 -12 -14 -11 -2 5 12 16 11 21
-14 47 -15 16 -33 27 -38 23 -6 -3 -7 -1 -3 5 9 14 -63 94 -77 85 -6 -4 -7 -1
-3 6 11 17 -359 385 -376 375 -7 -4 -10 -3 -5 1 7 8 -39 65 -53 65 -3 0 -32
25 -64 55 -33 30 -63 52 -68 49 -5 -3 -7 -1 -6 4 4 14 -84 82 -96 75 -5 -3 -6
-1 -2 5 4 6 -6 19 -21 29 -15 10 -32 23 -36 30 -4 7 -15 13 -22 13 -8 0 -15 4
-15 8 0 15 -101 83 -112 76 -6 -4 -8 -3 -5 4 9 14 -89 86 -104 76 -7 -4 -9 -3
-6 3 9 14 -19 37 -34 27 -7 -4 -9 -3 -6 3 9 15 -400 283 -431 283 -6 0 -12 4
-14 8 -6 16 -138 83 -150 76 -6 -4 -8 -3 -5 3 8 12 -61 46 -75 37 -6 -4 -8 -3
-5 3 8 13 -50 46 -65 37 -6 -4 -8 -3 -5 3 4 6 -25 24 -66 43 -104 46 -101 45
-92 30 5 -9 4 -11 -4 -6 -6 4 -9 11 -6 16 7 11 -24 22 -38 13 -7 -3 -8 -2 -4
2 9 10 -111 67 -124 59 -5 -3 -9 -1 -9 5 0 15 -563 228 -635 240 -5 1 -41 11
-79 22 -82 25 -318 85 -361 93 -16 3 -84 17 -149 31 -66 14 -138 28 -160 31
-23 3 -113 16 -201 29 -88 14 -198 26 -245 27 -47 2 -87 6 -90 10 -7 8 -432
28 -573 26 -61 0 -195 -5 -297 -10z m-370 -68 c6 -11 8 -20 6 -20 -3 0 -10 9
-16 20 -6 11 -8 20 -6 20 3 0 10 -9 16 -20z m1506 -9 c1 -6 0 -7 -3 -1 -2 5
-9 8 -13 5 -5 -3 -11 -1 -14 4 -4 5 2 8 11 7 9 -2 18 -8 19 -15z m494 -65 c0
-2 -6 -9 -14 -15 -11 -9 -16 -9 -22 0 -4 7 -3 9 4 5 6 -3 13 -2 17 4 6 10 15
14 15 6z m-2753 -42 c-3 -3 -12 -4 -19 -1 -8 3 -5 6 6 6 11 1 17 -2 13 -5z
m3708 -282 c-3 -3 -11 0 -18 7 -9 10 -8 11 6 5 10 -3 15 -9 12 -12z m-4985
-246 c0 -2 -9 -6 -20 -9 -11 -3 -18 -1 -14 4 5 9 34 13 34 5z m-320 -162 c0
-8 -19 -13 -24 -6 -3 5 1 9 9 9 8 0 15 -2 15 -3z m-166 -52 c3 -5 -1 -9 -9 -9
-8 0 -12 4 -9 9 3 4 7 8 9 8 2 0 6 -4 9 -8z m6581 -61 c3 -5 2 -12 -3 -15 -5
-3 -9 1 -9 9 0 17 3 19 12 6z m16 -35 c-9 -11 -9 -15 1 -19 7 -3 3 -4 -9 -4
-21 1 -21 2 -6 19 19 21 31 24 14 4z m159 -101 c0 -2 -9 -3 -19 -2 -11 0 -18
5 -15 9 4 6 34 0 34 -7z m-7075 -14 c3 -5 2 -12 -3 -15 -5 -3 -9 1 -9 9 0 17
3 19 12 6z m7225 -91 c0 -5 -2 -10 -4 -10 -3 0 -8 5 -11 10 -3 6 -1 10 4 10 6
0 11 -4 11 -10z m105 -101 c11 -16 1 -19 -13 -3 -7 8 -8 14 -3 14 5 0 13 -5
16 -11z m136 -106 c13 -16 12 -17 -3 -4 -17 13 -22 21 -14 21 2 0 10 -8 17
-17z m34 7 c3 -5 1 -10 -4 -10 -6 0 -11 5 -11 10 0 6 2 10 4 10 3 0 8 -4 11
-10z m180 -170 c-3 -5 -12 -10 -18 -10 -7 0 -6 4 3 10 19 12 23 12 15 0z m29
-31 c-3 -5 -10 -7 -15 -3 -5 3 -7 10 -3 15 3 5 10 7 15 3 5 -3 7 -10 3 -15z
m-8360 -37 c3 -5 -1 -9 -9 -9 -8 0 -12 4 -9 9 3 4 7 8 9 8 2 0 6 -4 9 -8z
m8448 -27 c3 0 8 -2 10 -5 2 -3 1 -4 -1 -3 -2 2 -10 -2 -18 -8 -7 -6 -13 -10
-14 -8 -7 34 -6 38 4 32 7 -4 15 -8 19 -8z m254 -247 c3 -4 -1 -5 -10 -4 -8 1
-18 5 -22 8 -3 4 1 5 10 4 8 -1 18 -5 22 -8z m104 -124 c0 -8 -19 -13 -24 -6
-3 5 1 9 9 9 8 0 15 -2 15 -3z m114 -172 c3 -5 -1 -9 -9 -9 -8 0 -12 4 -9 9 3
4 7 8 9 8 2 0 6 -4 9 -8z m-9479 -31 c3 -5 2 -12 -3 -15 -5 -3 -9 1 -9 9 0 17
3 19 12 6z m9626 -154 c-10 -9 -11 -8 -5 6 3 10 9 15 12 12 3 -3 0 -11 -7 -18z
m29 -30 c-24 -22 -24 -22 -6 0 10 12 15 27 11 35 -7 10 -5 11 6 0 11 -10 9
-16 -11 -35z m90 -77 c8 -5 7 -9 -4 -13 -9 -4 -15 -1 -13 6 1 7 -3 11 -10 10
-7 -2 -10 4 -6 13 4 11 8 12 13 4 4 -7 13 -16 20 -20z m45 -59 c3 -5 2 -12 -3
-15 -5 -3 -9 1 -9 9 0 17 3 19 12 6z m-10100 -101 c3 -6 -1 -7 -9 -4 -18 7
-21 14 -7 14 6 0 13 -4 16 -10z m10202 -49 c0 -11 -5 -18 -9 -15 -4 3 -5 11
-1 19 7 21 12 19 10 -4z m-4052 -115 c39 -10 77 -19 85 -21 18 -3 32 -8 140
-53 137 -58 251 -140 386 -276 67 -67 141 -152 166 -189 25 -37 48 -65 51 -62
4 3 5 2 2 -2 -5 -7 49 -107 73 -135 8 -10 12 -18 8 -18 -3 0 3 -19 15 -42 13
-24 37 -85 54 -136 17 -50 35 -89 40 -85 4 5 5 2 1 -5 -4 -7 0 -43 8 -81 43
-190 49 -423 16 -618 -11 -63 -17 -120 -13 -126 3 -5 1 -7 -4 -4 -9 6 -24 -35
-38 -103 -1 -3 -9 -22 -18 -44 -20 -46 -21 -60 -4 -50 7 4 9 3 4 -2 -5 -5 -11
-7 -14 -4 -4 5 -88 -162 -84 -168 1 -1 -8 -12 -19 -24 -11 -12 -20 -26 -20
-30 0 -5 -18 -33 -40 -63 -22 -30 -40 -56 -40 -59 0 -3 -18 -24 -40 -48 -22
-24 -59 -66 -82 -94 -23 -27 -59 -62 -80 -77 -37 -26 -52 -52 -24 -41 8 3 17
1 20 -4 3 -5 -7 -8 -23 -6 -20 2 -42 -8 -81 -37 -63 -47 -169 -110 -224 -133
-21 -9 -45 -24 -53 -34 -8 -9 -11 -11 -7 -3 5 11 3 13 -10 8 -10 -4 -22 -7
-27 -7 -5 0 -9 -8 -9 -17 0 -12 -3 -14 -8 -6 -6 9 -28 6 -90 -11 -45 -13 -85
-24 -87 -25 -3 0 -26 -1 -51 -1 -25 0 -43 -4 -39 -9 3 -5 0 -13 -6 -17 -8 -5
-9 -3 -4 5 5 9 -1 12 -21 11 -16 -1 -696 -2 -1511 -1 l-1483 1 0 1485 0 1485
1558 -3 c1464 -3 1561 -4 1627 -21z m270 -46 c-3 -5 -1 -10 5 -10 6 0 8 -5 4
-12 -6 -9 -9 -9 -12 0 -2 7 -8 10 -12 7 -5 -3 -12 0 -16 6 -4 7 -3 9 4 5 6 -3
13 -2 17 4 3 5 8 10 11 10 3 0 2 -4 -1 -10z m120 -80 c-8 -13 1 -13 28 1 20 9
20 9 5 -4 -10 -8 -14 -18 -10 -22 4 -4 -3 -2 -16 4 -19 10 -23 31 -6 31 3 0 2
-4 -1 -10z m99 -46 c3 -8 2 -12 -4 -9 -6 3 -10 10 -10 16 0 14 7 11 14 -7z
m-6937 -89 c0 -8 -4 -12 -9 -9 -5 3 -6 10 -3 15 9 13 12 11 12 -6z m7101 -40
c-3 -3 -9 2 -12 12 -6 14 -5 15 5 6 7 -7 10 -15 7 -18z m64 -62 c-6 -2 -9 -10
-6 -15 4 -7 2 -8 -5 -4 -13 9 -5 26 12 25 9 0 8 -2 -1 -6z m35 -88 c0 -8 -4
-12 -9 -9 -5 3 -6 10 -3 15 9 13 12 11 12 -6z m43 -39 c0 -2 -7 -7 -16 -10 -8
-3 -12 -2 -9 4 6 10 25 14 25 6z m-7610 -566 c6 -11 8 -20 6 -20 -3 0 -10 9
-16 20 -6 11 -8 20 -6 20 3 0 10 -9 16 -20z m11490 -65 c0 -8 -4 -15 -10 -15
-5 0 -7 7 -4 15 4 8 8 15 10 15 2 0 4 -7 4 -15z m35 5 c-3 -5 -12 -10 -18 -10
-7 0 -6 4 3 10 19 12 23 12 15 0z m42 -135 c0 -8 -4 -12 -9 -9 -5 3 -6 10 -3
15 9 13 12 11 12 -6z m11 -71 c-1 -5 -9 -9 -16 -10 -10 -2 -11 1 -1 12 12 14
24 13 17 -2z m9 -46 c-3 -8 -6 -5 -6 6 -1 11 2 17 5 13 3 -3 4 -12 1 -19z
m-3736 -561 c-10 -9 -11 -8 -5 6 3 10 9 15 12 12 3 -3 0 -11 -7 -18z m2 -32
c-3 -9 -8 -14 -10 -11 -3 3 -2 9 2 15 9 16 15 13 8 -4z m-88 -175 c3 -5 1 -10
-4 -10 -6 0 -11 5 -11 10 0 6 2 10 4 10 3 0 8 -4 11 -10z m-226 -353 c-2 -1
-13 -9 -24 -17 -19 -14 -19 -14 -6 3 7 9 18 17 24 17 6 0 8 -1 6 -3z m4358
-272 c0 -8 -4 -12 -9 -9 -5 3 -6 10 -3 15 9 13 12 11 12 -6z m-4697 -30 c0 -7
-30 -13 -34 -7 -3 4 4 9 15 9 10 1 19 0 19 -2z m-65 -15 c-3 -5 -12 -10 -18
-10 -7 0 -6 4 3 10 19 12 23 12 15 0z m90 -10 c3 -6 -1 -7 -9 -4 -18 7 -21 14
-7 14 6 0 13 -4 16 -10z m4657 -42 c-7 -7 -12 -8 -12 -2 0 14 12 26 19 19 2
-3 -1 -11 -7 -17z m-4858 -790 c-5 -7 4 -9 25 -6 17 2 29 2 26 0 -8 -8 177
-52 189 -45 6 3 7 2 3 -2 -10 -11 132 -67 146 -58 6 3 7 1 4 -4 -6 -9 42 -37
58 -34 3 1 14 -8 25 -19 12 -12 25 -18 30 -15 6 4 10 2 10 -3 0 -14 81 -63 92
-55 7 3 8 1 4 -5 -10 -17 28 -34 44 -19 12 10 12 9 2 -4 -10 -13 -3 -22 39
-57 28 -23 55 -39 60 -36 5 3 9 2 8 -3 -3 -17 1 -36 7 -31 6 6 54 -38 54 -50
0 -4 24 -32 53 -63 28 -31 53 -60 54 -63 6 -22 59 -94 65 -90 5 3 7 2 6 -3 -1
-4 11 -34 27 -65 24 -49 30 -56 43 -45 13 10 14 9 2 -10 -12 -18 -11 -25 2
-45 8 -12 21 -40 27 -61 7 -20 16 -35 20 -32 5 2 6 -7 3 -22 -4 -19 -2 -24 8
-18 9 5 11 4 6 -3 -6 -10 13 -94 31 -142 7 -17 9 -32 11 -78 1 -18 6 -31 10
-28 5 3 9 -179 10 -404 0 -243 -3 -412 -9 -416 -5 -3 -6 -10 -3 -16 4 -6 10
-5 16 3 8 11 9 11 5 -1 -2 -8 -9 -14 -14 -13 -5 1 -16 -28 -23 -65 -7 -37 -23
-101 -36 -142 -17 -55 -20 -77 -12 -87 8 -10 7 -12 -6 -7 -9 3 -17 1 -17 -5
-3 -20 -5 -26 -37 -89 -18 -34 -30 -68 -26 -74 4 -7 3 -8 -4 -4 -7 4 -12 3
-12 -3 0 -5 -14 -30 -31 -55 -17 -25 -27 -51 -23 -57 4 -7 3 -9 -4 -5 -10 6
-52 -43 -52 -61 0 -4 -9 -14 -20 -21 -11 -7 -20 -16 -20 -20 0 -10 -180 -192
-190 -192 -13 0 -40 -37 -33 -45 5 -4 2 -5 -4 -1 -17 10 -75 -35 -68 -52 4
-12 3 -13 -10 -2 -10 8 -15 9 -15 1 0 -6 -4 -11 -9 -11 -5 0 -44 -19 -86 -41
-56 -30 -73 -44 -63 -51 8 -5 4 -7 -13 -3 -16 4 -31 1 -40 -8 -8 -7 -20 -12
-28 -9 -9 3 -11 0 -6 -8 5 -8 4 -11 -2 -7 -6 4 -44 -5 -84 -19 -41 -14 -83
-27 -94 -30 -11 -2 -33 -7 -50 -10 -16 -4 -86 -14 -155 -23 -111 -14 -305 -16
-1722 -13 l-1598 2 0 1645 0 1645 1700 0 c1219 -1 1699 -4 1694 -12z m146 7
c0 -2 -6 -8 -13 -14 -10 -8 -14 -7 -14 2 0 8 6 14 14 14 7 0 13 -1 13 -2z m61
-22 c13 -16 12 -17 -3 -4 -10 7 -18 15 -18 17 0 8 8 3 21 -13z m359 -152 c0
-5 -7 -12 -16 -15 -14 -5 -15 -4 -4 9 14 17 20 19 20 6z m32 -29 c-7 -2 -9 -9
-5 -15 3 -7 2 -8 -2 -4 -16 14 -14 36 3 29 10 -4 12 -7 4 -10z m4269 -25 c-10
-9 -11 -8 -5 6 3 10 9 15 12 12 3 -3 0 -11 -7 -18z m-8 -202 c-3 -9 -8 -14
-10 -11 -3 3 -2 9 2 15 9 16 15 13 8 -4z m-3936 -97 c0 -13 -1 -17 -4 -10 -3
6 -10 9 -16 5 -7 -4 -6 1 2 10 17 21 17 21 18 -5z m128 -198 c3 -5 1 -10 -4
-10 -6 0 -11 5 -11 10 0 6 2 10 4 10 3 0 8 -4 11 -10z m110 -80 c3 -5 1 -10
-4 -10 -6 0 -11 5 -11 10 0 6 2 10 4 10 3 0 8 -4 11 -10z m-4 -193 c-10 -9
-11 -8 -5 6 3 10 9 15 12 12 3 -3 0 -11 -7 -18z m3556 -202 c0 -8 -4 -12 -9
-9 -4 3 -8 0 -8 -7 0 -7 -3 -9 -6 -6 -4 4 -1 13 6 22 15 19 17 19 17 0z
m-3473 -41 c3 -8 2 -12 -4 -9 -6 3 -10 10 -10 16 0 14 7 11 14 -7z m3386 -204
c0 -5 -5 -10 -11 -10 -5 0 -7 5 -4 10 3 6 8 10 11 10 2 0 4 -4 4 -10z m-11800
-162 c0 -4 -4 -8 -9 -8 -6 0 -12 4 -15 8 -3 5 1 9 9 9 8 0 15 -4 15 -9z
m11661 -381 c-10 -9 -11 -8 -5 6 3 10 9 15 12 12 3 -3 0 -11 -7 -18z m-104
-109 c-3 -8 -6 -5 -6 6 -1 11 2 17 5 13 3 -3 4 -12 1 -19z m1 -123 c-3 -3 -9
2 -12 12 -6 14 -5 15 5 6 7 -7 10 -15 7 -18z m2 -31 c0 -8 -5 -12 -10 -9 -6 4
-8 11 -5 16 9 14 15 11 15 -7z m-145 -242 c-3 -3 -11 0 -18 7 -9 10 -8 11 6 5
10 -3 15 -9 12 -12z m-81 -188 c3 -8 2 -12 -4 -9 -6 3 -10 10 -10 16 0 14 7
11 14 -7z m-174 -284 c0 -5 -5 -10 -11 -10 -5 0 -7 5 -4 10 3 6 8 10 11 10 2
0 4 -4 4 -10z m-82 -98 c-7 -10 -14 -19 -15 -21 -3 -4 2 28 6 47 1 2 6 0 11
-3 8 -5 7 -12 -2 -23z m28 -7 c-1 -8 -8 -21 -16 -28 -10 -10 -11 -9 -4 3 5 8
9 18 10 23 3 14 4 17 8 17 2 0 3 -7 2 -15z m-3401 -24 c3 -5 2 -12 -3 -15 -5
-3 -9 1 -9 9 0 17 3 19 12 6z m3308 -49 c-10 -10 -20 -17 -22 -16 -6 5 20 34
30 34 5 0 1 -8 -8 -18z m17 -17 c-7 -9 -15 -13 -17 -11 -7 7 7 26 19 26 6 0 6
-6 -2 -15z m-114 -130 c-1 -8 -5 -17 -8 -21 -5 -4 -4 16 1 34 3 9 9 -1 7 -13z
m-3859 -31 c-3 -3 -12 -4 -19 -1 -8 3 -5 6 6 6 11 1 17 -2 13 -5z m3787 -42
c3 -5 -1 -9 -9 -9 -8 0 -12 4 -9 9 3 4 7 8 9 8 2 0 6 -4 9 -8z m50 -19 c4 -10
4 -14 0 -10 -4 4 -13 2 -20 -4 -8 -7 -14 -6 -20 2 -4 8 -3 9 5 5 6 -4 14 0 17
8 8 20 10 20 18 -1z m-53 -45 c-11 -11 -13 -10 -7 0 4 7 2 21 -5 30 -12 15
-11 15 6 0 16 -15 17 -20 6 -30z m-151 -188 c-6 -11 -13 -20 -16 -20 -2 0 0 9
6 20 6 11 13 20 16 20 2 0 0 -9 -6 -20z m-166 -228 c3 -5 -1 -9 -9 -9 -8 0
-12 4 -9 9 3 4 7 8 9 8 2 0 6 -4 9 -8z m-474 -468 c0 -8 -19 -13 -24 -6 -3 5
1 9 9 9 8 0 15 -2 15 -3z m-86 -12 c3 -5 -1 -9 -9 -9 -8 0 -12 4 -9 9 3 4 7 8
9 8 2 0 6 -4 9 -8z m29 -17 c-3 -9 -8 -14 -10 -11 -3 3 -2 9 2 15 9 16 15 13
8 -4z m-109 -63 c3 -5 -1 -9 -9 -9 -8 0 -12 4 -9 9 3 4 7 8 9 8 2 0 6 -4 9 -8z
m-169 -171 c3 -5 2 -12 -3 -15 -5 -3 -9 1 -9 9 0 17 3 19 12 6z m-50 -70 c3
-5 2 -12 -3 -15 -5 -3 -9 1 -9 9 0 17 3 19 12 6z m-55 -46 c0 -2 -6 -5 -13 -8
-8 -3 -14 1 -14 8 0 7 6 11 14 8 7 -3 13 -6 13 -8z m-111 -58 c-2 -1 -13 -9
-24 -17 -19 -14 -19 -14 -6 3 7 9 18 17 24 17 6 0 8 -1 6 -3z m-189 -142 c0
-2 -6 -5 -13 -8 -8 -3 -14 1 -14 8 0 7 6 11 14 8 7 -3 13 -6 13 -8z m-266
-171 c5 -13 4 -14 -7 -6 -8 7 -18 8 -22 4 -5 -4 -5 -1 -1 6 10 17 23 15 30 -4z
m-128 -63 c-4 -5 0 -11 6 -14 7 -3 3 -4 -9 -4 -17 1 -19 4 -11 14 12 15 22 18
14 4z m-159 -86 c0 -8 -4 -12 -9 -9 -5 3 -6 10 -3 15 9 13 12 11 12 -6z m-82
-24 c3 -5 2 -12 -3 -15 -5 -3 -9 1 -9 9 0 17 3 19 12 6z m-75 -67 c0 -2 -9 0
-20 6 -11 6 -20 13 -20 16 0 2 9 0 20 -6 11 -6 20 -13 20 -16z m-4876 -222 c3
-5 -1 -9 -9 -9 -8 0 -12 4 -9 9 3 4 7 8 9 8 2 0 6 -4 9 -8z"/>
<path d="M29181 12959 c-161 -14 -471 -78 -471 -98 0 -3 -11 -7 -23 -7 -13 -1
-46 -11 -73 -23 -27 -12 -50 -22 -52 -21 -6 1 -129 -64 -144 -78 -10 -8 -18
-12 -18 -8 0 6 -48 -21 -60 -34 -3 -3 -18 -13 -35 -22 -81 -45 -365 -295 -365
-321 0 -4 -12 -21 -28 -36 -46 -46 -134 -180 -126 -193 4 -6 3 -8 -3 -5 -12 8
-86 -131 -77 -145 4 -6 2 -8 -3 -5 -22 14 -141 -350 -130 -394 3 -11 2 -17 -2
-14 -29 17 -46 -466 -23 -630 17 -116 54 -275 64 -275 5 0 6 -4 3 -10 -12 -19
92 -278 147 -365 7 -11 26 -41 41 -67 16 -27 33 -46 37 -43 4 3 7 -1 6 -9 -2
-18 93 -138 104 -131 5 3 12 0 16 -6 4 -8 3 -9 -4 -5 -7 4 -12 3 -12 -2 0 -14
202 -202 217 -202 7 0 13 -4 13 -9 0 -25 291 -198 312 -185 6 4 8 3 5 -3 -8
-13 68 -47 84 -38 8 5 10 4 5 -3 -4 -7 -2 -13 3 -13 18 -2 24 -5 66 -23 55
-24 243 -72 367 -93 80 -14 160 -18 358 -18 222 0 272 3 388 23 139 24 354 83
378 103 8 6 14 9 14 5 0 -9 95 30 218 91 84 42 112 60 107 71 -4 12 -3 12 9 3
11 -10 16 -9 24 4 5 9 13 16 18 15 14 -2 84 40 84 51 0 16 -102 233 -112 240
-5 3 -8 8 -6 11 6 9 -64 158 -72 153 -5 -3 -12 0 -16 6 -4 8 -3 9 4 5 17 -10
15 10 -3 27 -8 8 -12 17 -9 19 5 6 -84 198 -92 198 -3 0 -20 -10 -37 -22 -18
-13 -35 -24 -39 -24 -5 -1 -13 -2 -19 -3 -5 0 -7 -6 -3 -13 4 -7 3 -8 -4 -4
-7 4 -38 -6 -69 -23 -115 -59 -282 -114 -451 -148 -67 -14 -134 -18 -297 -17
-189 0 -218 2 -290 23 -44 13 -88 24 -97 24 -10 1 -18 5 -18 10 0 4 -4 5 -10
2 -5 -3 -10 -2 -10 3 0 6 -11 12 -23 16 -13 3 -67 34 -120 70 -53 35 -99 61
-103 57 -4 -3 -4 -1 -1 5 8 14 -66 87 -78 77 -4 -5 -5 -3 -1 4 3 6 -15 42 -41
79 -54 78 -113 210 -137 309 -10 39 -21 84 -25 100 -15 60 -13 346 4 438 8 49
12 93 9 99 -5 7 -2 8 6 3 10 -6 12 -3 8 13 -4 12 -2 22 3 22 5 0 9 8 9 18 0
30 95 215 143 277 25 33 43 64 40 69 -4 5 -1 6 5 2 6 -3 17 2 24 11 17 24 104
94 151 122 20 13 34 27 31 33 -4 6 -2 8 4 4 11 -6 82 23 82 34 0 3 8 6 18 7 9
1 55 13 101 27 150 47 349 56 546 26 33 -5 76 -12 95 -14 48 -7 206 -51 254
-71 21 -9 45 -14 53 -11 8 3 12 2 9 -3 -7 -11 22 -23 36 -14 6 3 9 2 6 -3 -2
-5 51 -37 119 -70 l124 -62 29 65 c17 36 27 69 24 74 -3 5 0 9 6 9 6 0 14 10
19 23 5 12 30 67 56 122 69 146 85 185 77 185 -4 0 -2 4 4 8 7 4 30 46 52 93
l39 86 -100 59 c-55 32 -107 61 -116 64 -9 3 -50 22 -91 42 -138 67 -213 95
-340 128 -84 21 -217 48 -240 48 -8 0 -41 5 -73 11 -85 15 -366 21 -486 10z
m-116 -38 c-9 -8 -36 -10 -30 -2 2 4 11 8 20 8 8 0 13 -3 10 -6z m1439 -269
c3 -5 -1 -9 -9 -9 -8 0 -12 4 -9 9 3 4 7 8 9 8 2 0 6 -4 9 -8z m-1763 -2299
c13 -16 12 -17 -3 -4 -17 13 -22 21 -14 21 2 0 10 -8 17 -17z"/>
<path d="M40815 12964 c-27 -2 -88 -9 -135 -15 -47 -6 -91 -12 -97 -12 -7 0
-13 -4 -13 -9 0 -5 -4 -7 -9 -3 -38 23 -524 -136 -505 -166 3 -5 -3 -6 -12 -2
-13 5 -15 3 -9 -7 5 -9 4 -11 -4 -6 -6 4 -36 -8 -67 -26 -31 -18 -63 -37 -73
-43 -62 -37 -150 -108 -145 -117 4 -7 2 -8 -4 -4 -6 4 -37 -16 -69 -45 -76
-67 -94 -89 -86 -102 3 -5 1 -7 -5 -4 -20 13 -198 -214 -188 -240 3 -7 0 -12
-6 -10 -14 3 -59 -74 -51 -87 3 -5 1 -6 -4 -3 -12 7 -86 -150 -77 -164 3 -5 1
-9 -5 -9 -6 0 -26 -51 -45 -112 -47 -154 -66 -249 -71 -351 -2 -32 -6 -61 -9
-65 -12 -11 -5 -312 9 -432 15 -115 56 -308 72 -334 4 -6 8 -16 9 -23 6 -37
37 -112 45 -108 5 4 6 -1 3 -9 -7 -17 83 -193 148 -289 77 -115 186 -239 202
-230 5 4 6 1 2 -5 -8 -14 126 -129 239 -204 310 -205 682 -308 1113 -308 181
0 308 11 457 41 103 20 247 61 300 84 17 7 51 21 77 30 27 10 45 22 41 28 -3
6 -1 7 6 3 6 -4 24 0 39 10 15 10 32 19 37 20 21 3 159 91 243 154 99 73 228
200 298 291 62 81 165 250 158 261 -3 4 -1 8 4 8 10 0 56 104 93 207 19 54 20
65 8 80 -12 16 -12 17 2 5 15 -11 19 -2 38 79 12 50 20 94 17 97 -3 2 -1 13 4
23 25 45 38 429 20 584 -26 228 -88 435 -192 637 -63 123 -166 271 -181 261
-6 -3 -7 -1 -3 5 6 10 -145 170 -219 233 -50 42 -108 78 -118 72 -5 -3 -7 -1
-4 4 9 14 -198 137 -214 127 -7 -4 -9 -3 -6 3 7 11 -181 91 -224 95 -13 2 -26
6 -29 9 -9 12 -213 59 -321 74 -107 15 -394 26 -484 19z m323 -778 c3 -3 15
-6 26 -6 12 0 45 -6 73 -13 38 -10 55 -11 64 -3 9 8 10 8 6 0 -7 -12 117 -70
141 -67 7 0 11 -1 8 -4 -3 -3 23 -24 57 -46 34 -22 94 -71 133 -108 39 -38 74
-66 79 -62 4 5 5 3 2 -4 -4 -6 9 -35 29 -65 106 -157 160 -329 171 -548 17
-345 -87 -635 -302 -838 -42 -40 -78 -72 -80 -72 -9 0 -110 -64 -117 -74 -4
-6 -8 -8 -8 -4 0 4 -24 -2 -52 -14 -106 -42 -198 -59 -353 -65 -142 -5 -286 9
-350 33 -12 5 -16 4 -11 -4 3 -6 1 -14 -5 -18 -7 -4 -9 -3 -6 3 9 14 -5 23
-98 63 -44 19 -82 36 -85 40 -3 3 -27 19 -53 36 -113 72 -234 218 -298 359
-120 265 -129 658 -21 927 30 74 82 169 109 200 8 9 12 22 8 28 -3 6 -2 9 4 8
6 -2 32 20 58 47 71 73 123 118 165 140 20 10 35 22 33 25 -2 4 1 7 8 7 7 0
32 9 57 21 25 11 62 26 82 33 20 7 35 16 32 20 -2 5 4 6 15 4 11 -2 35 1 54 6
66 18 182 27 300 24 65 -2 121 -6 125 -9z m-558 -11 c0 -2 -10 -9 -22 -15 -22
-11 -22 -10 -4 4 21 17 26 19 26 11z m964 -83 c3 -5 -1 -9 -9 -9 -8 0 -12 4
-9 9 3 4 7 8 9 8 2 0 6 -4 9 -8z m-1367 -247 c0 -8 -4 -12 -9 -9 -5 3 -6 10
-3 15 9 13 12 11 12 -6z m2000 -1992 c-4 -3 -1 -13 6 -22 11 -14 10 -14 -5 -2
-16 12 -16 31 -1 31 4 0 3 -3 0 -7z"/>
<path d="M17940 11196 l0 -1726 953 1 c523 0 999 4 1057 9 395 35 673 131 848
294 68 64 166 202 157 224 -2 7 0 10 5 7 6 -3 10 2 10 13 0 10 3 22 7 26 13
13 43 121 54 200 15 101 6 330 -16 416 -22 86 -92 233 -107 224 -7 -5 -8 -2
-3 6 5 8 1 18 -10 27 -11 7 -15 13 -10 13 5 0 -17 27 -50 60 -32 32 -63 56
-68 53 -6 -3 -7 -1 -4 4 13 20 -196 138 -278 158 -5 1 -23 7 -38 13 -16 7 -35
12 -43 12 -28 0 -13 17 26 29 25 7 38 16 34 23 -4 7 -3 8 4 4 29 -17 269 141
258 170 -3 8 0 11 8 8 18 -7 77 75 120 167 61 129 80 223 81 394 0 270 -59
436 -207 583 -71 70 -117 104 -131 95 -6 -3 -7 -1 -3 5 6 10 -140 88 -179 94
-11 2 -22 6 -25 10 -9 12 -201 58 -250 61 -25 1 -47 5 -50 8 -19 25 -251 32
-1177 36 l-973 5 0 -1726z m1860 1013 c14 -2 27 -6 30 -10 3 -3 27 -14 55 -25
27 -10 54 -21 59 -23 5 -2 5 2 1 9 -5 9 -4 11 4 6 6 -4 9 -12 5 -18 -3 -5 5
-22 19 -36 58 -63 82 -164 66 -277 -15 -106 -74 -199 -139 -220 -11 -4 -18
-10 -15 -15 3 -4 -1 -8 -8 -7 -29 1 -48 -4 -44 -10 8 -12 -29 -14 -535 -19
l-478 -5 0 331 0 331 478 -4 c262 -3 488 -6 502 -8z m1013 -604 c-3 -9 -8 -14
-10 -11 -3 3 -2 9 2 15 9 16 15 13 8 -4z m-150 -200 c-3 -9 -8 -14 -10 -11 -3
3 -2 9 2 15 9 16 15 13 8 -4z m-808 -500 c39 -10 92 -29 119 -42 52 -27 136
-106 136 -130 0 -8 4 -12 8 -9 4 2 8 -3 9 -12 0 -9 6 -44 13 -77 17 -82 6
-194 -24 -261 -23 -49 -100 -134 -128 -141 -7 -1 -44 -14 -83 -28 -38 -13 -82
-25 -97 -25 -15 0 -29 -4 -32 -9 -3 -4 -219 -9 -481 -10 l-475 -2 0 386 0 387
483 -5 c420 -3 491 -6 552 -22z m975 -1061 c0 -8 -19 -13 -24 -6 -3 5 1 9 9 9
8 0 15 -2 15 -3z"/>
<path d="M21520 11195 l0 -1725 1155 0 1155 0 0 385 0 385 -710 0 -710 -1 0
1341 0 1340 -445 0 -445 0 0 -1725z"/>
<path d="M25323 12813 c-53 -144 -263 -703 -274 -728 -29 -69 -38 -98 -34
-105 3 -5 1 -10 -4 -12 -8 -3 -190 -473 -195 -502 -1 -6 -5 -16 -8 -22 -11
-17 -146 -377 -150 -399 -1 -11 -6 -22 -10 -25 -4 -3 -25 -55 -47 -115 -46
-129 -179 -481 -192 -510 -42 -93 -208 -552 -204 -563 2 -7 1 -10 -5 -7 -5 3
-13 -9 -19 -27 -5 -18 -35 -97 -65 -176 -31 -79 -56 -145 -56 -148 0 -2 213
-4 473 -4 l472 0 33 93 c46 125 173 487 180 511 4 14 1 17 -9 12 -9 -5 -8 -3
2 6 15 13 40 83 172 493 36 110 95 290 131 401 36 110 67 209 69 220 2 10 9
30 14 44 6 14 45 133 88 265 91 284 156 479 160 483 2 2 20 -48 41 -112 21
-63 42 -112 48 -109 5 3 6 1 2 -5 -9 -15 146 -482 158 -475 5 3 6 1 2 -5 -4
-7 88 -299 204 -649 116 -351 251 -757 299 -903 l88 -265 476 -3 c262 -1 477
0 477 3 0 14 -85 231 -92 233 -4 2 -6 8 -2 13 3 5 1 9 -5 9 -6 0 -8 7 -5 15 4
8 2 15 -3 15 -5 0 -9 8 -10 18 -1 9 -9 35 -19 57 -10 22 -19 48 -21 58 -2 10
-12 40 -22 65 -30 72 -86 217 -123 320 -20 57 -38 90 -45 88 -7 -3 -10 3 -7
17 3 20 -22 105 -35 117 -4 3 -8 14 -9 25 -2 11 -12 40 -22 65 -16 38 -171
446 -204 535 -6 17 -15 33 -21 37 -5 4 -7 8 -3 8 5 0 -1 24 -13 53 -11 28 -25
67 -30 85 -6 18 -14 30 -19 27 -6 -3 -7 0 -4 8 3 8 -11 54 -30 103 -73 187
-226 595 -226 605 0 5 -5 7 -12 3 -6 -4 -8 -3 -4 4 3 6 -5 39 -18 74 -13 35
-39 101 -56 148 -18 47 -37 96 -43 110 -5 14 -11 30 -13 35 -7 31 -178 472
-187 483 -7 9 -118 12 -492 12 l-482 0 -40 -107z m381 -1121 c3 -5 -1 -9 -9
-9 -8 0 -12 4 -9 9 3 4 7 8 9 8 2 0 6 -4 9 -8z m-7 -87 c0 -8 -4 -12 -9 -9 -5
3 -6 10 -3 15 9 13 12 11 12 -6z m-400 -1120 c0 -8 -4 -12 -9 -9 -5 3 -6 10
-3 15 9 13 12 11 12 -6z"/>
<path d="M31070 11195 l0 -1725 440 0 440 0 0 441 0 441 35 41 c20 23 34 46
31 53 -2 6 1 11 8 10 13 -1 26 14 181 199 50 59 99 112 110 117 11 6 17 7 13
3 -4 -4 1 -21 11 -38 35 -62 146 -232 153 -235 5 -2 8 -8 8 -13 0 -19 107
-178 115 -171 5 4 5 2 2 -4 -7 -12 129 -229 143 -229 4 0 12 -4 17 -9 5 -5 3
-6 -4 -2 -7 4 -13 4 -13 -1 0 -15 56 -93 63 -88 4 3 5 2 2 -1 -7 -11 25 -65
35 -59 6 3 8 0 5 -7 -3 -7 6 -26 20 -42 14 -16 25 -33 25 -38 0 -5 10 -24 23
-43 19 -28 26 -32 37 -22 11 9 11 8 0 -7 -12 -16 -12 -20 1 -30 9 -6 17 -15
19 -21 5 -23 53 -95 62 -95 5 0 6 -5 3 -10 -3 -6 0 -13 8 -16 7 -2 14 -10 14
-17 0 -18 33 -67 46 -67 6 0 7 -3 4 -7 -4 -3 -2 -12 4 -19 9 -11 113 -13 520
-14 338 0 509 3 509 10 0 5 -9 19 -20 30 -11 11 -20 22 -20 25 0 8 -142 220
-155 230 -7 6 -15 20 -19 33 -4 12 -12 22 -17 22 -5 0 -9 7 -9 15 0 8 -4 15
-10 15 -5 0 -10 4 -10 9 0 12 -251 385 -262 389 -4 2 -8 8 -8 13 0 5 -66 107
-147 227 -82 119 -195 288 -253 373 -58 86 -108 155 -111 153 -3 -2 -6 2 -6 9
0 18 -54 97 -66 97 -6 0 -7 3 -4 6 4 4 -12 33 -35 66 -29 42 -46 57 -57 53
-12 -5 -13 -4 -4 6 9 9 5 22 -19 58 -18 25 -36 48 -40 49 -4 2 -6 7 -3 12 2 4
-4 15 -15 25 -19 17 -19 18 3 49 12 17 29 38 38 46 45 42 110 130 103 141 -4
7 -3 9 4 5 12 -7 164 163 156 176 -3 5 -1 7 3 6 15 -5 145 153 139 168 -3 8 0
11 8 8 16 -6 79 69 68 81 -4 5 -2 5 5 1 7 -4 17 2 23 13 6 12 20 31 33 44 86
92 167 194 159 201 -4 4 -2 6 4 4 6 -1 73 71 149 162 76 91 176 209 222 263
52 60 81 102 77 110 -4 6 -3 9 1 4 9 -7 45 20 45 35 0 4 -229 8 -509 8 l-510
0 -38 -47 c-21 -27 -68 -85 -105 -129 -38 -45 -68 -84 -68 -87 0 -3 -13 -20
-29 -37 -36 -39 -56 -64 -304 -370 -7 -8 -36 -44 -65 -80 -30 -36 -60 -73 -69
-84 -102 -126 -211 -260 -241 -295 -20 -24 -44 -54 -52 -65 -8 -12 -45 -57
-82 -100 -37 -44 -64 -84 -61 -89 3 -6 1 -7 -5 -3 -7 4 -12 2 -12 -5 0 -7 -2
-10 -5 -7 -3 3 -5 319 -5 702 l0 696 -440 0 -440 0 0 -1725z m2547 1210 c0 -8
-4 -12 -9 -9 -5 3 -6 10 -3 15 9 13 12 11 12 -6z m-1226 -442 c13 -16 12 -17
-3 -4 -17 13 -22 21 -14 21 2 0 10 -8 17 -17z m524 -672 c-9 -8 -36 -10 -30
-2 2 4 11 8 20 8 8 0 13 -3 10 -6z m-211 -1069 c3 -5 -1 -9 -9 -9 -8 0 -12 4
-9 9 3 4 7 8 9 8 2 0 6 -4 9 -8z"/>
<path d="M35697 12913 c-4 -3 -7 -780 -7 -1725 l0 -1718 909 0 c596 0 912 3
916 10 3 6 12 10 18 10 7 0 6 -4 -3 -10 -20 -13 11 -13 160 0 111 9 285 34
285 40 0 1 16 3 35 5 87 10 360 106 360 127 0 5 4 7 8 4 13 -8 147 90 144 105
-2 8 0 11 4 6 9 -9 94 72 94 90 0 7 4 13 9 13 15 0 83 119 75 131 -4 7 -3 9 3
6 13 -8 46 92 67 198 17 93 20 280 6 375 -13 77 -44 176 -78 245 -27 54 -40
67 -57 57 -5 -3 -4 1 2 9 11 13 6 23 -25 60 -45 54 -64 69 -76 62 -5 -4 -6 -1
-2 5 17 28 -195 152 -331 194 -71 22 -93 38 -54 38 11 0 27 7 35 16 9 8 16 13
16 9 0 -3 36 13 80 36 46 24 77 46 73 52 -3 5 -1 7 5 4 5 -4 34 13 64 37 191
155 287 450 248 764 -7 56 -17 102 -22 102 -5 0 -7 4 -3 9 9 16 -33 131 -75
201 -44 76 -146 181 -210 218 -25 15 -50 31 -57 38 -6 6 -42 24 -80 39 -37 15
-77 31 -88 36 -111 46 -348 87 -583 99 -200 11 -1855 14 -1865 3z m1813 -704
c36 -6 72 -12 81 -13 21 -3 111 -56 127 -75 54 -66 76 -122 73 -180 -2 -20 1
-31 7 -27 6 3 14 1 18 -5 4 -7 3 -9 -4 -5 -6 3 -12 -5 -16 -21 -10 -56 -20
-128 -19 -140 0 -7 -3 -11 -7 -8 -4 3 -13 -8 -20 -24 -26 -63 -103 -112 -217
-135 -58 -13 -160 -16 -515 -16 l-443 -1 -3 331 -2 330 437 0 c277 0 462 -4
503 -11z m-468 -1279 c391 -1 456 -4 529 -20 46 -10 87 -16 91 -14 3 2 8 1 10
-3 1 -5 26 -19 55 -32 89 -41 143 -116 164 -225 13 -74 6 -189 -15 -241 -9
-22 -16 -44 -16 -48 1 -4 -19 -26 -42 -49 -51 -49 -142 -94 -224 -110 -32 -7
-61 -15 -64 -18 -7 -7 -46 -7 -535 -9 l-420 -2 -5 386 c-5 362 -3 402 21 389
3 -2 206 -4 451 -4z m1328 -1250 c-6 -11 -13 -20 -16 -20 -2 0 0 9 6 20 6 11
13 20 16 20 2 0 0 -9 -6 -20z"/>
<path d="M43300 11196 l0 -1726 443 2 442 3 3 623 2 622 148 0 c137 0 148 -1
160 -20 7 -12 18 -18 24 -14 7 4 8 3 4 -4 -4 -7 69 -125 170 -274 98 -145 198
-293 222 -330 25 -37 49 -65 55 -61 6 4 7 1 2 -7 -5 -8 -2 -17 7 -24 8 -6 15
-15 15 -19 2 -19 131 -196 138 -189 5 4 5 2 2 -5 -4 -6 0 -18 8 -26 8 -9 15
-18 15 -22 0 -7 119 -186 133 -200 7 -7 7 -5 2 4 -5 10 -4 12 4 7 6 -4 9 -12
5 -17 -3 -6 2 -19 12 -30 17 -19 34 -19 527 -19 l509 1 -15 22 c-9 12 -20 21
-25 20 -5 -1 -9 4 -9 11 0 23 -114 177 -125 170 -7 -4 -8 -2 -4 5 9 15 -32 73
-46 65 -7 -4 -8 -2 -4 4 8 13 -256 387 -266 377 -3 -3 -5 1 -5 8 0 11 -157
236 -173 247 -4 3 -9 10 -11 15 -2 6 -48 72 -103 148 -86 121 -100 136 -115
125 -14 -12 -15 -11 -2 5 10 12 11 21 5 25 -6 4 -13 14 -17 22 -4 8 -14 24
-22 36 -15 20 -14 22 42 39 158 48 329 145 435 246 73 69 120 128 111 142 -3
6 -1 7 5 3 12 -7 35 27 25 38 -3 3 -1 6 5 6 20 0 67 105 99 220 43 158 55 399
28 567 -36 226 -111 378 -255 524 -85 85 -194 170 -208 161 -2 -2 -8 1 -11 6
-11 17 -113 63 -128 58 -8 -3 -11 -1 -8 4 3 6 0 11 -7 12 -24 2 -33 5 -68 21
-54 23 -150 46 -294 69 -124 20 -178 21 -1008 25 l-878 5 0 -1726z m1651 1047
c13 -16 12 -17 -3 -4 -17 13 -22 21 -14 21 2 0 10 -8 17 -17z m64 -55 c28 -7
53 -11 58 -10 4 1 7 -2 7 -7 0 -5 10 -11 23 -15 39 -9 114 -84 141 -139 46
-93 57 -186 35 -297 -23 -116 -96 -205 -208 -253 -109 -47 -204 -57 -559 -60
l-322 -2 0 407 0 408 308 2 c303 3 392 -3 517 -34z m680 -1847 c3 -5 2 -12 -3
-15 -5 -3 -9 1 -9 9 0 17 3 19 12 6z m55 -67 c0 -8 -19 -13 -24 -6 -3 5 1 9 9
9 8 0 15 -2 15 -3z m-883 -69 c0 -8 -4 -12 -9 -9 -5 3 -6 10 -3 15 9 13 12 11
12 -6z m30 -40 c0 -8 -4 -12 -9 -9 -5 3 -6 10 -3 15 9 13 12 11 12 -6z"/>
<path d="M46660 11195 l0 -1725 443 2 442 3 3 1050 2 1050 89 -149 c49 -82 93
-152 98 -155 4 -3 9 -12 11 -19 3 -17 211 -364 226 -377 6 -6 12 -17 14 -25 6
-28 56 -99 66 -93 5 3 6 1 2 -5 -8 -14 158 -295 169 -285 4 5 5 3 2 -3 -6 -11
226 -407 235 -399 2 3 5 -1 5 -8 0 -12 278 -485 292 -497 3 -3 15 -22 25 -43
11 -20 29 -40 40 -43 12 -2 224 -3 471 -2 l450 3 3 1723 2 1722 -445 0 -445 0
0 -1046 c0 -576 -1 -1048 -3 -1050 -2 -2 -34 48 -71 111 -38 63 -72 115 -77
115 -5 0 -8 4 -7 8 4 11 -125 231 -133 227 -3 -2 -6 2 -6 9 0 17 -827 1395
-834 1390 -4 -2 -6 2 -5 9 0 6 -28 60 -64 120 l-65 107 -467 0 -468 0 0 -1725z
m1135 1325 c3 -6 -1 -7 -9 -4 -18 7 -21 14 -7 14 6 0 13 -4 16 -10z m-45
-1200 c0 -5 -2 -10 -4 -10 -3 0 -8 5 -11 10 -3 6 -1 10 4 10 6 0 11 -4 11 -10z
m240 -400 c0 -5 -2 -10 -4 -10 -3 0 -8 5 -11 10 -3 6 -1 10 4 10 6 0 11 -4 11
-10z"/>
<path d="M18542 6979 c-228 -38 -432 -194 -528 -403 -103 -226 -105 -549 -4
-772 98 -217 277 -360 512 -409 88 -19 293 -19 378 -1 114 25 219 73 320 148
l22 16 -33 55 -33 55 -45 -34 c-118 -91 -246 -129 -426 -128 -119 0 -138 3
-217 31 -192 67 -312 197 -380 413 -20 66 -23 95 -23 235 0 140 3 169 23 235
79 253 243 399 493 439 173 29 355 -10 497 -106 37 -24 70 -45 75 -46 4 -1 21
21 38 50 l30 52 -48 35 c-92 67 -212 117 -325 136 -74 12 -251 11 -326 -1z"/>
<path d="M21100 6974 c-193 -41 -348 -144 -450 -301 -97 -147 -133 -284 -132
-498 0 -170 27 -289 93 -417 62 -118 182 -238 299 -296 133 -66 188 -77 385
-77 150 0 179 3 245 23 127 40 206 88 301 182 71 71 94 101 132 180 74 149 90
225 90 415 0 189 -16 266 -88 411 -97 198 -274 332 -497 378 -95 20 -288 20
-378 0z m375 -129 c213 -57 366 -218 426 -450 29 -113 29 -308 0 -420 -62
-239 -220 -402 -441 -456 -31 -8 -107 -14 -175 -14 -192 1 -320 50 -441 171
-76 76 -146 210 -169 326 -19 99 -19 268 1 366 51 252 236 442 474 487 90 17
239 13 325 -10z"/>
<path d="M23560 6185 l0 -785 70 0 70 0 2 706 3 706 32 -74 c18 -40 160 -356
317 -703 l285 -630 65 -3 66 -3 24 53 c278 618 610 1345 617 1352 5 6 9 -261
9 -697 l0 -707 65 0 65 0 0 785 0 786 -107 -3 -108 -3 -312 -694 c-172 -381
-314 -695 -315 -697 -4 -3 -27 48 -408 899 l-223 497 -108 0 -109 0 0 -785z"/>
<path d="M26820 6185 l0 -785 65 0 65 0 0 706 c0 388 3 703 8 700 4 -2 149
-320 322 -705 l315 -700 66 -1 66 0 319 706 319 706 3 -706 2 -706 70 0 70 0
0 785 0 785 -108 0 -109 0 -314 -699 c-173 -385 -317 -696 -320 -693 -4 4 -62
131 -129 282 -68 151 -185 415 -262 585 -76 171 -160 358 -186 417 l-47 108
-107 0 -108 0 0 -785z"/>
<path d="M30072 6423 c4 -524 5 -551 25 -625 33 -115 71 -186 138 -253 112
-112 262 -165 469 -165 151 0 238 18 344 71 107 52 179 123 226 221 68 144 69
162 74 761 l4 537 -70 0 -71 0 -3 -537 c-4 -466 -7 -546 -21 -596 -54 -185
-158 -284 -340 -321 -140 -29 -287 -15 -400 38 -68 33 -150 118 -183 191 -49
106 -53 169 -54 718 l0 507 -71 0 -70 0 3 -547z"/>
<path d="M32910 6185 l0 -785 70 0 70 0 2 685 3 684 480 -684 480 -684 83 -1
82 0 0 785 0 785 -70 0 -70 0 -2 -687 -3 -686 -481 684 -481 684 -81 3 -82 3
0 -786z"/>
<path d="M35740 6185 l0 -785 70 0 70 0 0 785 0 785 -70 0 -70 0 0 -785z"/>
<path d="M37350 6905 l0 -65 255 0 255 0 0 -720 0 -720 70 0 70 0 0 720 0 720
250 0 250 0 0 65 0 65 -575 0 -575 0 0 -65z"/>
<path d="M39850 6964 c0 -3 144 -219 320 -480 l320 -474 0 -305 0 -305 65 0
65 0 0 305 0 306 320 474 c176 261 320 476 320 479 0 4 -36 6 -79 6 l-80 0
-272 -410 c-149 -225 -275 -408 -279 -405 -4 3 -128 187 -276 410 l-267 405
-79 0 c-43 0 -78 -3 -78 -6z"/>
</g>
</svg>
