<?xml version="1.0" standalone="no"?>
<!DOCTYPE svg PUBLIC "-//W3C//DTD SVG 20010904//EN"
 "http://www.w3.org/TR/2001/REC-SVG-20010904/DTD/svg10.dtd">
<svg version="1.0" xmlns="http://www.w3.org/2000/svg"
 width="243.000000pt" height="208.000000pt" viewBox="0 0 243.000000 208.000000"
 preserveAspectRatio="xMidYMid meet">

<g transform="translate(0.000000,208.000000) scale(0.100000,-0.100000)"
fill="#000000" stroke="none">
<path d="M1060 1486 l0 -113 50 -31 c55 -34 106 -104 116 -159 l6 -34 19 30
c44 72 149 93 204 41 37 -35 45 -79 45 -252 l0 -158 81 0 80 0 -3 213 c-3 205
-4 214 -28 257 -64 113 -245 146 -364 65 l-36 -24 0 139 0 140 -85 0 -85 0 0
-114z"/>
<path d="M875 1370 c-68 -10 -123 -39 -172 -92 -49 -54 -67 -103 -67 -183 -1
-85 25 -145 85 -199 64 -57 130 -80 234 -79 86 0 158 23 203 65 l22 22 -40 41
-41 42 -47 -24 c-38 -20 -58 -24 -109 -21 -70 4 -106 25 -136 77 l-19 31 216
0 216 0 0 43 c0 136 -97 256 -219 272 -25 4 -53 8 -61 9 -8 2 -38 0 -65 -4z
m121 -130 c36 -18 74 -66 74 -94 0 -3 -63 -6 -140 -6 -77 0 -140 3 -140 6 0
28 38 76 73 93 53 26 80 26 133 1z"/>
<path d="M1755 925 c-30 -30 -31 -54 -4 -89 15 -19 30 -26 55 -26 67 0 99 73
51 118 -31 29 -72 28 -102 -3z"/>
</g>
</svg>
