<?xml version="1.0" standalone="no"?>
<!DOCTYPE svg PUBLIC "-//W3C//DTD SVG 20010904//EN"
 "http://www.w3.org/TR/2001/REC-SVG-20010904/DTD/svg10.dtd">
<svg version="1.0" xmlns="http://www.w3.org/2000/svg"
 width="226.000000pt" height="223.000000pt" viewBox="0 0 226.000000 223.000000"
 preserveAspectRatio="xMidYMid meet">

<g transform="translate(0.000000,223.000000) scale(0.100000,-0.100000)"
fill="#000000" stroke="none">
<path d="M0 1115 l0 -1115 1130 0 1130 0 0 1115 0 1115 -1130 0 -1130 0 0
-1115z m533 183 c13 -10 17 -33 19 -97 2 -57 7 -86 16 -89 9 -3 12 15 12 67 0
39 3 71 8 71 35 0 82 -76 82 -133 0 -20 5 -39 10 -42 6 -3 10 -26 10 -51 0
-44 0 -44 -35 -44 -19 0 -35 -4 -35 -10 0 -6 -62 -10 -165 -10 -103 0 -165 4
-165 10 0 6 -16 10 -35 10 -34 0 -35 1 -35 39 0 22 6 44 15 51 9 7 15 29 15
52 0 43 11 71 43 106 36 40 47 29 47 -48 0 -40 4 -70 10 -70 6 0 10 37 10 90
0 85 1 91 23 100 33 13 131 12 150 -2z m652 -32 c95 -40 60 -176 -45 -176 -80
0 -120 89 -70 153 18 22 30 28 73 36 4 0 23 -5 42 -13z m722 -18 c16 -15 23
-33 23 -59 0 -51 -8 -67 -41 -84 -45 -24 -87 -19 -120 14 -88 88 47 215 138
129z m-1027 -13 c0 -34 1 -35 40 -35 39 0 40 1 40 35 0 31 3 35 25 35 l26 0
-3 -87 c-3 -83 -4 -88 -25 -91 -20 -3 -23 1 -23 32 0 35 -1 36 -40 36 -39 0
-40 -1 -40 -35 0 -31 -3 -35 -25 -35 -25 0 -25 1 -25 90 0 89 0 90 25 90 22 0
25 -4 25 -35z m528 23 c17 -17 15 -48 -4 -69 -15 -16 -14 -20 10 -52 32 -41
32 -47 4 -47 -15 0 -31 12 -46 35 -28 44 -42 44 -42 0 0 -31 -3 -35 -25 -35
-25 0 -25 1 -25 90 l0 90 58 0 c32 0 63 -5 70 -12z m132 -3 c0 -8 -4 -15 -10
-15 -14 0 -13 -103 1 -117 17 -17 1 -33 -34 -33 l-32 0 0 90 0 90 38 0 c26 0
37 -4 37 -15z m180 7 c0 -4 -23 -35 -50 -69 l-50 -62 47 -3 c35 -2 48 -7 48
-18 0 -12 -17 -16 -77 -18 -96 -4 -99 6 -32 87 l46 56 -46 3 c-32 2 -46 7 -46
18 0 11 17 14 80 14 44 0 80 -3 80 -8z m346 -49 l39 -57 3 57 c3 49 6 57 22
57 18 0 20 -7 20 -90 0 -87 -1 -90 -22 -90 -17 0 -35 17 -65 62 l-43 62 0 -63
c0 -59 -1 -62 -22 -59 -22 3 -23 8 -26 91 l-3 87 29 0 c24 0 36 -10 68 -57z
m-1166 -154 c0 -5 -4 -8 -9 -5 -19 12 -41 -7 -41 -34 0 -27 22 -46 41 -34 5 3
9 0 9 -5 0 -17 -37 -13 -54 5 -21 20 -20 43 1 66 17 20 53 25 53 7z m780 2 c0
-5 -9 -7 -20 -4 -27 7 -26 -14 2 -36 13 -11 19 -24 15 -34 -7 -19 -42 -23 -53
-6 -4 7 0 9 14 5 32 -10 35 10 5 32 -23 17 -25 22 -14 36 14 17 51 22 51 7z
m110 -42 c0 -31 -4 -48 -10 -44 -5 3 -10 26 -10 51 0 24 5 44 10 44 6 0 10
-23 10 -51z m-639 34 c5 -50 2 -82 -6 -80 -11 4 -23 56 -17 75 4 13 22 17 23
5z m233 -8 c3 -8 1 -15 -4 -15 -5 0 -5 -13 0 -31 7 -22 6 -29 -3 -26 -13 4
-26 54 -19 75 6 17 19 15 26 -3z m524 -16 c-6 -4 -8 -19 -6 -33 3 -14 1 -26
-3 -26 -5 0 -9 14 -9 30 0 17 -5 30 -10 30 -7 0 -6 5 2 13 9 10 15 11 24 3 8
-7 8 -13 2 -17z m-933 -24 c0 -35 -31 -47 -51 -20 -18 25 0 57 29 53 17 -2 22
-10 22 -33z m81 9 c4 -14 2 -30 -5 -37 -8 -8 -11 -3 -11 22 0 41 -22 37 -31
-5 -6 -27 -7 -27 -8 9 -1 33 2 37 24 37 18 0 26 -7 31 -26z m39 17 c-19 -8
-19 -8 2 -20 14 -7 20 -17 17 -26 -7 -16 -44 -21 -44 -5 0 5 7 7 15 4 8 -4 15
-2 15 4 0 5 -7 12 -15 16 -24 9 -18 36 8 35 21 0 21 -1 2 -8z m108 2 c-7 -2
-13 -18 -13 -34 0 -18 -4 -28 -10 -24 -5 3 -10 19 -10 36 0 24 4 29 23 28 12
0 16 -3 10 -6z m45 -51 c8 -2 12 7 12 27 0 17 5 31 10 31 6 0 10 -15 10 -34 0
-30 -3 -33 -27 -32 -25 1 -28 5 -30 36 -1 33 -1 33 5 6 4 -16 13 -31 20 -34z
m80 51 c-10 -2 -18 -13 -18 -23 0 -11 8 -24 18 -29 15 -9 15 -10 1 -11 -24 0
-42 26 -34 50 4 13 14 20 28 19 17 -1 18 -2 5 -6z m92 -28 c0 -19 -4 -35 -10
-35 -5 0 -10 16 -10 35 0 19 5 35 10 35 6 0 10 -16 10 -35z m77 19 c8 -22 -10
-49 -32 -49 -22 0 -40 27 -32 49 8 21 56 21 64 0z m71 -21 c-1 -37 -1 -37 -5
-5 -6 42 -33 44 -33 2 0 -16 -4 -30 -10 -30 -5 0 -10 16 -10 35 0 32 2 35 30
35 28 0 30 -2 28 -37z m187 8 c0 -34 -30 -51 -51 -29 -25 24 -10 60 24 56 21
-2 27 -8 27 -27z m67 4 c4 -35 22 -35 29 1 6 28 7 28 8 -7 1 -31 -2 -36 -19
-35 -23 1 -40 22 -40 49 0 27 18 20 22 -8z m115 -27 c-2 -13 -4 -5 -4 17 -1
22 1 32 4 23 2 -10 2 -28 0 -40z m78 17 c0 -35 -31 -47 -51 -20 -18 25 0 57
29 53 17 -2 22 -10 22 -33z m81 9 c4 -14 2 -30 -5 -37 -8 -8 -11 -3 -11 22 0
41 -22 37 -31 -5 -6 -27 -7 -27 -8 9 -1 33 2 37 24 37 18 0 26 -7 31 -26z m39
17 c-19 -8 -19 -8 2 -20 14 -7 20 -17 17 -26 -7 -16 -44 -21 -44 -5 0 5 7 7
15 4 8 -4 15 -2 15 4 0 5 -7 12 -15 16 -24 9 -18 36 8 35 21 0 21 -1 2 -8z"/>
<path d="M1110 1225 c-13 -16 -16 -67 -5 -85 9 -14 58 -13 73 2 7 7 12 24 12
39 0 50 -52 78 -80 44z"/>
<path d="M1806 1224 c-19 -18 -21 -65 -4 -82 17 -17 65 -15 72 4 10 26 7 69
-6 82 -17 17 -44 15 -62 -4z"/>
<path d="M1330 1214 c0 -33 33 -30 38 4 3 17 -2 22 -17 22 -16 0 -21 -6 -21
-26z"/>
<path d="M932 1008 c2 -12 10 -23 18 -23 22 0 19 39 -3 43 -15 3 -18 -1 -15
-20z"/>
<path d="M1447 1016 c-8 -20 16 -39 30 -25 14 14 6 39 -12 39 -7 0 -15 -6 -18
-14z"/>
<path d="M1710 1011 c0 -25 19 -38 31 -20 12 19 6 33 -14 37 -11 2 -17 -3 -17
-17z"/>
<path d="M1972 1008 c2 -12 10 -23 18 -23 22 0 19 39 -3 43 -15 3 -18 -1 -15
-20z"/>
</g>
</svg>
