<?xml version="1.0" standalone="no"?>
<!DOCTYPE svg PUBLIC "-//W3C//DTD SVG 20010904//EN"
 "http://www.w3.org/TR/2001/REC-SVG-20010904/DTD/svg10.dtd">
<svg version="1.0" xmlns="http://www.w3.org/2000/svg"
 width="262.000000pt" height="192.000000pt" viewBox="0 0 262.000000 192.000000"
 preserveAspectRatio="xMidYMid meet">

<g transform="translate(0.000000,192.000000) scale(0.100000,-0.100000)"
fill="#000000" stroke="none">
<path d="M0 960 l0 -960 1310 0 1310 0 0 960 0 960 -1310 0 -1310 0 0 -960z
m2570 0 l0 -910 -1260 0 -1260 0 0 910 0 910 1260 0 1260 0 0 -910z"/>
<path d="M874 1500 c-31 -12 -64 -59 -64 -91 0 -46 19 -75 81 -123 63 -49 74
-79 43 -110 -21 -21 -43 -20 -69 4 l-22 20 -19 -21 c-19 -21 -19 -21 9 -45 64
-55 167 -11 167 71 0 52 -21 86 -84 134 -62 46 -72 78 -34 105 20 14 24 14 45
1 18 -12 28 -13 43 -5 27 15 11 44 -31 59 -37 13 -37 13 -65 1z"/>
<path d="M420 1370 l0 -130 25 0 25 0 0 130 0 130 -25 0 -25 0 0 -130z"/>
<path d="M550 1315 l0 -185 -65 0 -65 0 0 -190 0 -190 25 0 c25 0 25 1 25 85
l0 85 40 0 c36 0 40 3 40 25 0 23 -4 25 -40 25 l-40 0 0 55 0 55 60 0 60 0 0
147 c0 87 4 143 9 138 5 -6 28 -55 51 -110 23 -55 44 -106 47 -112 3 -9 -5
-13 -26 -13 l-31 0 0 -190 0 -190 25 0 c25 0 25 1 25 79 0 44 4 82 9 85 23 15
43 -11 64 -83 21 -68 26 -76 50 -79 15 -2 27 0 27 5 0 4 -11 42 -26 85 l-25
76 25 26 c22 21 26 34 26 81 0 46 -4 60 -25 80 -13 14 -33 25 -45 25 -19 0
-20 5 -20 185 l0 185 -25 0 -25 0 0 -122 -1 -123 -51 123 c-45 107 -54 122
-74 122 l-24 0 0 -185z m238 -267 c19 -40 1 -75 -42 -83 -19 -4 -39 -4 -45 0
-6 3 -11 31 -11 61 l0 55 42 -3 c35 -2 45 -8 56 -30z"/>
<path d="M1030 1475 c0 -22 4 -25 35 -25 l35 0 0 -155 0 -155 25 0 25 0 0 155
0 155 35 0 c31 0 35 3 35 25 0 25 0 25 -95 25 -95 0 -95 0 -95 -25z"/>
<path d="M1280 1370 c0 -123 1 -130 20 -130 19 0 20 7 20 130 0 123 -1 130
-20 130 -19 0 -20 -7 -20 -130z"/>
<path d="M1390 1475 c0 -22 4 -25 35 -25 l35 0 0 -167 c-1 -140 -4 -177 -20
-223 -35 -100 -22 -246 27 -295 22 -21 25 -31 19 -65 -6 -37 -5 -40 18 -40 20
0 24 6 30 38 4 28 13 42 31 50 23 11 65 76 54 86 -2 2 -13 6 -24 10 -16 5 -23
0 -32 -24 -14 -38 -46 -40 -69 -4 -22 33 -31 168 -14 218 15 47 45 64 71 40
10 -9 19 -23 19 -29 0 -8 10 -10 26 -7 22 4 25 8 19 31 -10 39 -34 61 -77 67
l-39 7 3 151 3 151 33 3 c26 3 32 7 32 28 0 24 -1 24 -90 24 -89 0 -90 0 -90
-25z"/>
<path d="M1640 1334 l0 -166 29 -29 c17 -17 40 -29 55 -29 14 0 26 -2 26 -5 0
-2 -18 -82 -40 -176 -22 -95 -40 -174 -40 -175 0 -2 11 -4 24 -4 20 0 26 7 31
33 13 66 14 67 55 67 41 0 42 -1 55 -67 5 -26 11 -33 31 -33 13 0 24 4 24 9 0
4 -18 88 -40 185 -39 171 -40 178 -25 222 11 32 15 86 15 189 l0 145 -25 0
-25 0 0 -153 c0 -139 -2 -156 -19 -171 -11 -10 -30 -16 -42 -14 -40 5 -49 41
-49 196 0 135 -1 142 -20 142 -19 0 -20 -7 -20 -166z m154 -346 c4 -24 9 -53
13 -65 5 -20 1 -23 -27 -23 -28 0 -32 3 -27 23 4 12 9 41 13 65 4 23 10 42 14
42 4 0 10 -19 14 -42z"/>
<path d="M1880 1475 c0 -22 4 -25 35 -25 l35 0 0 -170 0 -170 25 0 25 0 0 170
0 170 35 0 c31 0 35 3 35 25 0 25 0 25 -95 25 -95 0 -95 0 -95 -25z"/>
<path d="M2099 1112 c-29 -26 -34 -37 -34 -77 0 -45 3 -49 68 -108 71 -65 82
-91 49 -120 -25 -22 -41 -21 -69 4 -18 18 -25 20 -38 9 -23 -19 -18 -38 18
-60 49 -30 83 -26 124 15 33 33 35 39 30 82 -5 49 -9 54 -105 135 -37 30 -40
47 -13 79 19 23 21 23 50 7 25 -14 32 -14 48 -3 17 13 17 15 -3 35 -11 11 -36
23 -56 26 -30 5 -41 1 -69 -24z"/>
<path d="M965 1118 c-2 -7 -20 -85 -40 -173 -20 -88 -38 -168 -41 -177 -4 -14
1 -18 20 -18 25 0 29 5 41 68 7 32 9 33 48 30 41 -3 42 -4 51 -50 7 -44 11
-48 36 -48 l28 0 -13 53 c-7 28 -27 114 -45 190 -30 130 -33 137 -56 137 -14
0 -26 -6 -29 -12z m55 -205 c0 -8 -13 -13 -31 -13 -24 0 -29 4 -25 18 3 9 8
29 11 45 17 85 17 85 31 22 7 -33 13 -66 14 -72z"/>
<path d="M1155 940 l0 -190 23 0 c22 0 22 2 22 127 0 72 4 123 9 117 4 -5 30
-62 57 -126 42 -103 51 -118 71 -118 l23 0 0 190 0 190 -25 0 -25 0 0 -117 c0
-64 -4 -113 -8 -108 -5 6 -28 58 -52 118 -39 97 -46 107 -69 107 l-26 0 0
-190z"/>
<path d="M1950 875 l0 -125 25 0 25 0 0 125 0 125 -25 0 -25 0 0 -125z"/>
<path d="M412 533 l1 -48 4 43 c3 34 8 42 25 42 17 0 19 -4 14 -27 -5 -23 -4
-25 5 -10 15 26 4 47 -26 47 -23 0 -25 -3 -23 -47z"/>
<path d="M492 533 c2 -28 8 -47 16 -49 7 -1 8 0 2 3 -5 2 -10 22 -10 43 0 32
4 39 23 43 18 4 18 4 -6 6 -27 1 -28 0 -25 -46z"/>
<path d="M629 563 c-12 -16 -12 -17 1 -7 8 7 24 14 35 17 19 4 19 5 -1 6 -12
0 -28 -7 -35 -16z"/>
<path d="M709 563 c-11 -15 -11 -16 1 -5 23 20 49 14 56 -13 7 -27 -9 -55 -32
-55 -7 0 -20 12 -28 28 -8 15 -15 22 -16 16 0 -7 8 -22 18 -34 36 -44 90 7 62
59 -13 26 -43 27 -61 4z"/>
<path d="M800 535 c0 -27 2 -46 4 -44 8 8 10 78 3 85 -4 4 -7 -14 -7 -41z"/>
<path d="M858 535 c-2 -25 0 -45 4 -45 5 0 8 20 8 45 0 25 -2 45 -4 45 -2 0
-6 -20 -8 -45z"/>
<path d="M928 573 c6 -2 18 -2 25 0 6 3 1 5 -13 5 -14 0 -19 -2 -12 -5z"/>
<path d="M1030 567 c14 -8 27 -12 30 -10 7 6 -23 23 -40 23 -8 0 -4 -6 10 -13z"/>
<path d="M1228 573 c6 -2 18 -2 25 0 6 3 1 5 -13 5 -14 0 -19 -2 -12 -5z"/>
<path d="M1290 561 c-5 -11 -10 -26 -10 -35 0 -17 26 -46 42 -46 6 0 0 8 -12
18 -18 14 -22 25 -16 45 7 29 33 36 54 15 8 -8 12 -8 12 -1 0 12 -23 23 -45
23 -8 0 -19 -9 -25 -19z"/>
<path d="M1390 571 c0 -5 5 -13 10 -16 6 -3 10 -2 10 4 0 5 -4 13 -10 16 -5 3
-10 2 -10 -4z"/>
<path d="M1456 563 c-6 -14 -5 -15 5 -6 7 7 10 15 7 18 -3 3 -9 -2 -12 -12z"/>
<path d="M1525 569 c-4 -6 -5 -12 -2 -15 2 -3 7 2 10 11 7 17 1 20 -8 4z"/>
<path d="M556 547 c4 -17 1 -34 -7 -45 -13 -15 -12 -16 4 -3 19 15 22 38 7 61
-8 11 -9 8 -4 -13z"/>
<path d="M895 550 c-8 -24 2 -60 17 -60 6 0 6 6 -2 15 -7 8 -10 25 -6 40 8 30
0 34 -9 5z"/>
<path d="M986 554 c-3 -9 -6 -22 -6 -29 0 -17 27 -45 43 -45 6 0 1 7 -12 16
-18 13 -22 23 -17 45 6 31 2 39 -8 13z"/>
<path d="M1194 555 c-8 -21 4 -65 17 -65 8 0 7 5 -1 15 -7 8 -10 26 -8 40 6
28 1 33 -8 10z"/>
<path d="M830 530 c6 -11 13 -20 16 -20 2 0 0 9 -6 20 -6 11 -13 20 -16 20 -2
0 0 -9 6 -20z"/>
<path d="M1472 510 c0 -19 2 -27 5 -17 2 9 2 25 0 35 -3 9 -5 1 -5 -18z"/>
<path d="M1511 533 c-1 -6 -4 -20 -7 -30 -5 -17 -5 -17 6 0 6 10 9 23 6 30 -3
9 -5 9 -5 0z"/>
<path d="M957 510 c3 -11 7 -20 9 -20 2 0 4 9 4 20 0 11 -4 20 -9 20 -5 0 -7
-9 -4 -20z"/>
<path d="M1551 520 c0 -8 4 -22 9 -30 12 -18 12 -2 0 25 -6 13 -9 15 -9 5z"/>
<path d="M1346 503 c-6 -14 -5 -15 5 -6 7 7 10 15 7 18 -3 3 -9 -2 -12 -12z"/>
<path d="M1420 500 c0 -5 5 -10 11 -10 5 0 7 5 4 10 -3 6 -8 10 -11 10 -2 0
-4 -4 -4 -10z"/>
<path d="M1013 403 c-16 -6 -17 -29 -1 -39 7 -4 8 -3 4 5 -4 6 -2 18 4 26 13
16 12 16 -7 8z"/>
<path d="M413 355 c0 -27 2 -38 4 -22 2 15 2 37 0 50 -2 12 -4 0 -4 -28z"/>
<path d="M473 355 c0 -27 2 -38 4 -22 2 15 2 37 0 50 -2 12 -4 0 -4 -28z"/>
<path d="M535 390 c3 -5 8 -10 11 -10 2 0 4 5 4 10 0 6 -5 10 -11 10 -5 0 -7
-4 -4 -10z"/>
<path d="M602 358 c-2 -46 -1 -48 26 -47 22 1 23 2 5 6 -18 3 -23 13 -26 46
l-4 42 -1 -47z"/>
<path d="M730 357 c0 -45 1 -47 28 -46 22 1 23 3 6 6 -18 3 -22 11 -22 39 0
20 -3 38 -6 41 -3 4 -6 -15 -6 -40z"/>
<path d="M890 386 c21 -26 8 -60 -25 -68 l-30 -7 29 2 c16 1 33 9 39 18 12 19
1 69 -14 69 -8 0 -8 -4 1 -14z"/>
<path d="M932 358 c-2 -46 -1 -48 26 -47 22 1 23 2 5 6 -18 3 -23 13 -26 46
l-4 42 -1 -47z"/>
<path d="M1101 370 c15 -45 24 -54 15 -15 -4 17 -12 34 -17 40 -5 5 -4 -6 2
-25z"/>
<path d="M1151 393 c-1 -6 -4 -20 -7 -30 -5 -17 -5 -17 6 0 6 10 9 23 6 30 -3
9 -5 9 -5 0z"/>
<path d="M1185 389 c-4 -6 -5 -12 -2 -15 2 -3 7 2 10 11 7 17 1 20 -8 4z"/>
<path d="M1240 386 c17 -21 8 -60 -14 -64 -11 -3 -26 4 -33 14 -12 16 -13 16
-13 1 0 -21 45 -33 65 -17 22 19 17 80 -7 80 -6 0 -6 -6 2 -14z"/>
<path d="M1282 358 c-2 -46 -1 -48 26 -47 22 1 23 2 5 6 -18 3 -23 13 -26 46
l-4 42 -1 -47z"/>
<path d="M1347 393 c-11 -11 -8 -58 5 -71 7 -7 23 -11 38 -11 23 1 23 2 -5 8
-24 5 -31 12 -33 35 -2 16 2 32 10 37 7 5 8 9 2 9 -6 0 -14 -3 -17 -7z"/>
<path d="M1455 390 c3 -5 8 -10 11 -10 2 0 4 5 4 10 0 6 -5 10 -11 10 -5 0 -7
-4 -4 -10z"/>
<path d="M1535 373 c34 -53 45 -67 45 -60 0 10 -51 87 -57 87 -3 0 3 -12 12
-27z"/>
<path d="M1611 388 c-1 -10 8 -23 19 -30 27 -17 25 -36 -2 -41 l-23 -4 23 -2
c31 -2 40 27 15 48 -11 9 -23 23 -26 31 -4 12 -6 11 -6 -2z"/>
<path d="M551 363 c-1 -7 -10 -13 -21 -13 -11 0 -20 -4 -20 -9 0 -5 9 -7 20
-4 13 4 26 -1 36 -13 15 -18 15 -18 6 1 -5 11 -12 27 -15 35 -3 9 -6 10 -6 3z"/>
<path d="M1471 363 c-1 -7 -10 -13 -21 -13 -11 0 -20 -4 -20 -9 0 -5 9 -7 21
-4 12 4 25 0 30 -8 11 -18 10 -1 -1 26 -5 11 -9 14 -9 8z"/>
<path d="M1037 342 c4 -16 -1 -21 -19 -25 l-23 -4 23 -2 c25 -1 40 25 24 41
-8 8 -9 5 -5 -10z"/>
<path d="M1126 323 c-6 -14 -5 -15 5 -6 7 7 10 15 7 18 -3 3 -9 -2 -12 -12z"/>
<path d="M678 313 c6 -2 18 -2 25 0 6 3 1 5 -13 5 -14 0 -19 -2 -12 -5z"/>
</g>
</svg>
